<svg xmlns="http://www.w3.org/2000/svg" viewBox="0 0 256 256" role="img" aria-label="C#">
  <defs>
    <linearGradient id="g" x1="0" x2="1" y1="0" y2="1">
      <stop offset="0" stop-color="#A855F7"/>
      <stop offset="1" stop-color="#6D28D9"/>
    </linearGradient>
  </defs>
  <path fill="url(#g)" d="M128 16c61.9 0 112 50.1 112 112s-50.1 112-112 112S16 189.9 16 128 66.1 16 128 16Z"/>
  <path fill="#fff" d="M126.8 176.7c-27.7 0-50.2-22.5-50.2-50.2s22.5-50.2 50.2-50.2c12.7 0 24.3 4.7 33.2 12.4l-14.3 16.2c-5.1-4.4-11.6-7.1-18.9-7.1-16.1 0-29.2 13.1-29.2 29.2s13.1 29.2 29.2 29.2c7.4 0 14-2.7 19.1-7.3l14.4 16.1c-9 8-20.8 12.9-33.5 12.9Z"/>
  <path fill="#fff" d="M176.6 101.2h-12.3l2.1-12.2h-10.6l-2.1 12.2h-12.5l2.1-12.2h-10.6l-2.1 12.2h-12.3v10.6h10.5l-2.1 12.5h-10.5v10.6h8.7l-2.1 12.2h10.6l2.1-12.2h12.5l-2.1 12.2h10.6l2.1-12.2h12.3v-10.6h-10.5l2.1-12.5h10.5v-10.6Zm-27.3 23.1h-12.5l2.1-12.5h12.5l-2.1 12.5Z"/>
</svg>
